<?xml version="1.0" standalone="no"?>
<!DOCTYPE svg PUBLIC "-//W3C//DTD SVG 20010904//EN"
 "http://www.w3.org/TR/2001/REC-SVG-20010904/DTD/svg10.dtd">
<svg version="1.0" xmlns="http://www.w3.org/2000/svg"
 width="414.000000pt" height="414.000000pt" viewBox="0 0 414.000000 414.000000"
 preserveAspectRatio="xMidYMid meet">
<metadata>
Created by potrace 1.11, written by Peter Selinger 2001-2013
</metadata>
<g transform="translate(0.000000,414.000000) scale(0.100000,-0.100000)"
fill="#000000" stroke="none">
<path d="M1830 3705 l0 -125 -250 0 -250 0 0 -125 0 -125 -125 0 -125 0 -2
-292 -3 -293 -185 -61 c-213 -72 -240 -90 -240 -169 0 -41 16 -68 215 -367
l215 -323 0 -280 0 -281 -63 -62 c-34 -34 -66 -62 -71 -62 -4 0 -49 40 -100
89 -137 132 -155 132 -292 0 -51 -49 -98 -89 -104 -89 -7 0 -47 34 -89 75
l-77 75 -84 -85 -85 -86 140 -138 c84 -84 151 -142 168 -146 48 -13 79 5 172
96 50 49 97 89 105 89 8 0 55 -40 105 -89 135 -132 155 -132 290 0 50 49 97
89 105 89 8 0 55 -40 105 -89 135 -132 155 -132 290 0 50 49 97 89 105 89 8 0
55 -40 105 -89 135 -132 155 -132 290 0 50 49 97 89 105 89 8 0 55 -40 105
-89 135 -132 155 -132 290 0 50 49 97 89 105 89 8 0 55 -40 105 -89 135 -132
155 -132 290 0 50 49 97 89 105 89 8 0 55 -40 105 -89 135 -132 155 -132 290
0 50 49 98 89 105 89 8 0 49 -34 90 -75 l75 -75 85 85 85 86 -140 138 c-142
141 -170 160 -221 147 -15 -4 -69 -47 -120 -97 -51 -49 -98 -89 -104 -89 -6 0
-53 40 -104 89 -120 116 -156 125 -230 61 -18 -17 -36 -30 -40 -30 -3 0 -6
127 -6 283 l0 282 215 323 c199 299 215 326 215 367 0 79 -27 97 -240 169
l-185 61 -3 293 -2 292 -125 0 -125 0 0 125 0 125 -250 0 -250 0 0 125 0 125
-245 0 -245 0 0 -125z m750 -500 l0 -125 125 0 125 0 0 -125 c0 -69 -3 -125
-8 -125 -4 0 -174 56 -377 123 l-370 124 -370 -124 c-203 -67 -373 -123 -377
-123 -5 0 -8 56 -8 125 l0 125 125 0 125 0 0 125 0 125 505 0 505 0 0 -125z"/>
<path d="M655 818 c-11 -6 -62 -51 -112 -102 l-93 -91 -83 83 -82 82 -85 -85
-85 -86 140 -138 c84 -84 151 -142 168 -146 48 -13 79 5 172 96 50 49 97 89
105 89 8 0 55 -40 105 -89 135 -132 155 -132 290 0 50 49 97 89 105 89 8 0 55
-40 105 -89 135 -132 155 -132 290 0 50 49 97 89 105 89 8 0 55 -40 105 -89
135 -132 155 -132 290 0 50 49 97 89 105 89 8 0 55 -40 105 -89 135 -132 155
-132 290 0 50 49 97 89 105 89 8 0 55 -40 105 -89 135 -132 155 -132 290 0 50
49 97 89 105 89 8 0 55 -40 105 -89 135 -132 155 -132 290 0 50 49 98 89 105
89 8 0 49 -34 90 -75 l75 -75 85 85 85 86 -140 138 c-142 141 -170 160 -222
146 -15 -3 -71 -50 -125 -103 l-98 -96 -98 96 c-143 141 -161 141 -304 0 l-98
-96 -98 96 c-143 141 -161 141 -304 0 l-98 -96 -98 96 c-143 141 -161 141
-304 0 l-98 -96 -98 96 c-143 141 -161 141 -304 0 l-98 -96 -98 96 c-143 141
-161 141 -304 0 l-98 -96 -93 91 c-117 116 -148 131 -202 101z"/>
</g>
</svg>
